<svg width="1200" height="675" viewBox="0 0 1200 675" fill="none" xmlns="http://www.w3.org/2000/svg">
  <defs>
    <linearGradient id="bg" x1="90" y1="70" x2="1090" y2="610" gradientUnits="userSpaceOnUse">
      <stop stop-color="#102D4C"/>
      <stop offset="1" stop-color="#071426"/>
    </linearGradient>
    <linearGradient id="gold" x1="0" y1="0" x2="1" y2="1">
      <stop stop-color="#F3D49A"/>
      <stop offset="1" stop-color="#E8B45D"/>
    </linearGradient>
  </defs>
  <rect width="1200" height="675" rx="32" fill="url(#bg)"/>
  <circle cx="1030" cy="104" r="210" fill="#E8B45D" fill-opacity=".07"/>
  <circle cx="170" cy="620" r="250" fill="#4F83AA" fill-opacity=".09"/>
  <rect x="118" y="126" width="345" height="424" rx="42" fill="#091A2C" stroke="#E8B45D" stroke-opacity=".35" stroke-width="3"/>
  <rect x="142" y="171" width="297" height="316" rx="18" fill="#0E263F"/>
  <path d="M182 227C182 209.327 196.327 195 214 195H360C377.673 195 392 209.327 392 227V239C392 256.673 377.673 271 360 271H246L214 296V271C196.327 271 182 256.673 182 239V227Z" fill="#1A4165"/>
  <rect x="215" y="222" width="132" height="10" rx="5" fill="#A9B7C8"/>
  <rect x="215" y="242" width="96" height="8" rx="4" fill="#6F8CA8"/>
  <path d="M207 355C207 337.327 221.327 323 239 323H367C384.673 323 399 337.327 399 355V373C399 390.673 384.673 405 367 405H253L221 430V405C213.268 405 207 398.732 207 391V355Z" fill="#E8B45D"/>
  <rect x="242" y="351" width="117" height="10" rx="5" fill="#071426"/>
  <rect x="242" y="372" width="78" height="8" rx="4" fill="#765B2D"/>
  <rect x="260" y="510" width="83" height="8" rx="4" fill="#E8B45D" fill-opacity=".5"/>
  <circle cx="301" cy="147" r="7" fill="#E8B45D"/>
  <text x="540" y="264" fill="#E8B45D" font-family="Arial, sans-serif" font-size="28" font-weight="700" letter-spacing="4">TCC · TECNOLOGIA SOCIAL</text>
  <text x="540" y="345" fill="#EEF3F8" font-family="Arial, sans-serif" font-size="62" font-weight="700">Disque Tech Fácil</text>
  <text x="540" y="402" fill="#A9B7C8" font-family="Arial, sans-serif" font-size="29">Apoio digital acessível pelo WhatsApp</text>
  <rect x="540" y="456" width="158" height="48" rx="24" fill="#E8B45D" fill-opacity=".12" stroke="#E8B45D" stroke-opacity=".3"/>
  <text x="571" y="487" fill="#F3D49A" font-family="Arial, sans-serif" font-size="20">IA + inclusão</text>
</svg>
